<svg height="512" viewBox="0 0 512 512" width="512" xmlns="http://www.w3.org/2000/svg"><g id="Fill_out_line" data-name="Fill out line"><path d="m24 72h288v415.949h-288z" fill="#529ddf"/><path d="m56 104h224v351.949h-224z" fill="#fae7cb"/><path d="m216 104h-15.56a20.3743 20.3743 0 0 1 -18.51-28.89l7.85-17.04993a23.98 23.98 0 1 0 -43.56006 0l7.85006 17.04993a20.3743 20.3743 0 0 1 -18.51 28.89h-15.56a32.004 32.004 0 0 0 -32 32h160a32.004 32.004 0 0 0 -32-32zm-48-48a8 8 0 1 1 8-8 7.99786 7.99786 0 0 1 -8 8z" fill="#68737f"/><path d="m376 488-92-92a62.22533 62.22533 0 0 1 0-88 62.22533 62.22533 0 0 1 88 0l4 4 4-4a62.22533 62.22533 0 0 1 88 0 62.22533 62.22533 0 0 1 0 88z" fill="#e04446"/><path d="m304 272h16v-200a7.99977 7.99977 0 0 0 -8-8h-104v16h96z"/><path d="m304 479.94873h-272v-399.94873h96v-16h-104a7.99977 7.99977 0 0 0 -8 8v415.94873a7.99977 7.99977 0 0 0 8 8h288a7.99977 7.99977 0 0 0 8-8v-31.94873h-16z"/><circle cx="168" cy="48" r="8"/><path d="m56 96a7.99977 7.99977 0 0 0 -8 8v351.9502a7.99977 7.99977 0 0 0 8 8h224a7.99977 7.99977 0 0 0 8-8v-31.9502h-16v23.9502h-208v-335.9502h24.02185a39.79044 39.79044 0 0 0 -8.02185 24 7.99977 7.99977 0 0 0 8 8h160a7.99977 7.99977 0 0 0 8-8 39.79044 39.79044 0 0 0 -8.02185-24h24.02185v168h16v-176a7.99977 7.99977 0 0 0 -8-8h-79.56252a12.28914 12.28914 0 0 1 -8.74705-3.62305 12.41842 12.41842 0 0 1 -2.48926-13.92041l7.84912-17.04834a31.98158 31.98158 0 1 0 -58.10058 0l7.84912 17.04834a12.41842 12.41842 0 0 1 -2.48926 13.92041 12.28916 12.28916 0 0 1 -8.74709 3.62305zm79.56006 16h.00242a28.18473 28.18473 0 0 0 20.06057-8.30957 28.47831 28.47831 0 0 0 5.709-31.92529l-7.84914-17.04834a15.9586 15.9586 0 0 1 .0166-13.40381 15.98155 15.98155 0 0 1 29.00049.00049 15.95745 15.95745 0 0 1 .01709 13.40332l-7.84909 17.04834a28.47831 28.47831 0 0 0 5.709 31.92529 28.18471 28.18471 0 0 0 20.06048 8.30957h15.56252a24.04118 24.04118 0 0 1 22.62891 16h-141.25782a24.04118 24.04118 0 0 1 22.62891-16z"/><path d="m88 240.05127h48a7.99977 7.99977 0 0 0 8-8v-44.63527l13.65674-13.65674-11.31348-11.31346-13.65674 13.65674h-44.68652a7.99977 7.99977 0 0 0 -8 8v47.94873a7.99977 7.99977 0 0 0 8 8zm8-47.94873h20.68652l-10.34326 10.34326 11.31348 11.31348 10.34326-10.34328v20.63525h-32z"/><path d="m80 328a7.99977 7.99977 0 0 0 8 8h48a7.99977 7.99977 0 0 0 8-8v-44.63525l13.65674-13.65675-11.31348-11.31348-13.65674 13.65674h-44.68652a7.99977 7.99977 0 0 0 -8 8zm16-39.94873h20.68652l-10.34326 10.34326 11.31348 11.31347 10.34326-10.34325v20.63525h-32z"/><path d="m80 423.94873a7.99977 7.99977 0 0 0 8 8h48a7.99977 7.99977 0 0 0 8-8v-8h104v-16h-104v-23.94873a7.99977 7.99977 0 0 0 -8-8h-48a7.99977 7.99977 0 0 0 -8 8zm16-39.94873h32v31.94873h-32z"/><path d="m160 208.051h96v16h-96z"/><path d="m160 304.051h96v16h-96z"/><path d="m473.65674 302.34326a70.30661 70.30661 0 0 0 -97.65674-1.604 70.22552 70.22552 0 0 0 -97.65674 100.91748l92 92a7.99945 7.99945 0 0 0 11.31348 0l92-92a70.3047 70.3047 0 0 0 0-99.31348zm-11.31348 88-86.34326 86.34326-86.34326-86.34326a54.22557 54.22557 0 0 1 76.68652-76.68652l4 4a8 8 0 0 0 11.31348 0l4-4a54.22556 54.22556 0 0 1 76.68652 76.68652z"/><path d="m316.24561 333.124a22.10762 22.10762 0 0 1 11.75439-3.34959v-16a38.09229 38.09229 0 0 0 -20.24658 5.78907z"/><path d="m306.57666 346.10449-15.43652-4.209a38.34964 38.34964 0 0 0 9.83056 37.13379l13.37256 13.37256 11.31348-11.31348-13.37256-13.37256a22.31515 22.31515 0 0 1 -5.70752-21.61131z"/></g></svg>