<?xml version="1.0"?>
<svg xmlns="http://www.w3.org/2000/svg" viewBox="0 0 512 512" width="512" height="512"><g id="Fill_out_line" data-name="Fill out line"><path d="M256,336l68-68A39.59793,39.59793,0,0,0,324,212L324,212A39.59793,39.59793,0,0,0,268,212l-12,12-12-12A39.59793,39.59793,0,0,0,188,212L188,212A39.59793,39.59793,0,0,0,188,268Z" style="fill:#e04446"/><path d="M398,144h23.71973a201.08324,201.08324,0,0,0-18.75-23.6499q-5.44484-5.88026-11.31983-11.32007A201.15292,201.15292,0,0,0,368,90.28V114A29.9982,29.9982,0,0,0,398,144ZM368,398v23.72a200.19871,200.19871,0,0,0,23.6499-18.76q5.87988-5.43018,11.31006-11.31006A200.15247,200.15247,0,0,0,421.71973,368H398A29.9982,29.9982,0,0,0,368,398ZM114,368H90.28a201.13313,201.13313,0,0,0,18.75,23.6499q5.44482,5.88025,11.32007,11.32007A201.13313,201.13313,0,0,0,144,421.72V398A29.998,29.998,0,0,0,114,368Zm-4.97-247.6499A201.13313,201.13313,0,0,0,90.28,144H114a29.998,29.998,0,0,0,30-30V90.28a201.13313,201.13313,0,0,0-23.6499,18.75Q114.46985,114.47485,109.03,120.3501Z" style="fill:#e04446"/><path d="M454.2002,229.10986c-.22022-1.71-.48047-3.40991-.75-5.10986q-1.14039-7.08-2.77-13.99a197.97372,197.97372,0,0,0-15.04-42.01q-4.02027-8.22-8.78028-16-2.47485-4.06494-5.14013-8H398a29.9982,29.9982,0,0,1-30-30V90.28A199.88335,199.88335,0,0,0,348.62012,78.7q-7.51539-3.94482-15.40039-7.23A197.78486,197.78486,0,0,0,288,58.55005a202.0554,202.0554,0,0,0-64,0c-.60986.09985-1.22.2-1.83008.30981q-9.43506,1.59009-18.5498,4.08008A198.60262,198.60262,0,0,0,144,90.28V114a29.998,29.998,0,0,1-30,30H90.28a199.35078,199.35078,0,0,0-14.73,25.6499,199.64842,199.64842,0,0,0-17,54.3501,202.0554,202.0554,0,0,0,0,64c.73,4.52,1.60986,9,2.63989,13.40991A195.79771,195.79771,0,0,0,67.33008,322.5,199.29365,199.29365,0,0,0,90.28,368H114a29.998,29.998,0,0,1,30,30v23.72a198.34859,198.34859,0,0,0,41.48,21.48q8.3551,3.16517,17.07007,5.57007A197.49348,197.49348,0,0,0,224,453.45a202.0554,202.0554,0,0,0,64,0,198.80642,198.80642,0,0,0,80-31.73V398a29.9982,29.9982,0,0,1,30-30h23.71973A200.17776,200.17776,0,0,0,438.54,337.8501q3.55518-7.92,6.41992-16.2002A197.40221,197.40221,0,0,0,453.4502,288a201.93924,201.93924,0,0,0,.75-58.89014ZM371.68018,288A120.68337,120.68337,0,1,1,376,256,120.21516,120.21516,0,0,1,371.68018,288Z" style="fill:#e04446"/><path d="M136,256a119.80849,119.80849,0,0,0,4.32007,32h-81.77q-1.27515-7.905-1.92017-16C56.22,266.72,56,261.37988,56,256a200.95481,200.95481,0,0,1,2.55-32h81.77a118.98328,118.98328,0,0,0-3.26,16A120.52274,120.52274,0,0,0,136,256Z" style="fill:#d4e4f0"/><path d="M288,371.67993v81.77q-7.905,1.27515-16,1.92017C266.71973,455.78,261.37988,456,256,456a200.95481,200.95481,0,0,1-32-2.55v-81.77a118.98328,118.98328,0,0,0,16,3.26,120.87458,120.87458,0,0,0,48-3.26Z" style="fill:#d4e4f0"/><path d="M456,256a200.984,200.984,0,0,1-2.5498,32h-81.77a119.02171,119.02171,0,0,0,3.25976-16,120.8791,120.8791,0,0,0-3.25976-48h81.77q1.2744,7.905,1.91992,16C455.78027,245.28,456,250.62012,456,256Z" style="fill:#d4e4f0"/><path d="M288,58.55005v81.77a118.99122,118.99122,0,0,0-16-3.26,120.87458,120.87458,0,0,0-48,3.26v-81.77q7.905-1.27515,16-1.92017C245.28,56.22,250.62012,56,256,56A200.95481,200.95481,0,0,1,288,58.55005Z" style="fill:#d4e4f0"/><path d="M421.71973,144H398a29.9982,29.9982,0,0,1-30-30V90.28a201.15292,201.15292,0,0,1,23.6499,18.75q5.87988,5.44482,11.31983,11.32007A201.08324,201.08324,0,0,1,421.71973,144Z" style="fill:#d6323f"/><path d="M144,90.28V114a29.998,29.998,0,0,1-30,30H90.28a201.13313,201.13313,0,0,1,18.75-23.6499q5.44482-5.88026,11.32007-11.32007A201.13313,201.13313,0,0,1,144,90.28Z" style="fill:#d6323f"/><path d="M144,398v23.72a201.13313,201.13313,0,0,1-23.6499-18.75q-5.88026-5.4452-11.32007-11.32007A201.13313,201.13313,0,0,1,90.28,368H114A29.998,29.998,0,0,1,144,398Z" style="fill:#d6323f"/><path d="M421.71973,368A200.15247,200.15247,0,0,1,402.96,391.6499q-5.43018,5.88025-11.31006,11.31006A200.19871,200.19871,0,0,1,368,421.72V398a29.9982,29.9982,0,0,1,30-30Z" style="fill:#d6323f"/><path d="M261.65723,341.65674l68-68a47.59816,47.59816,0,0,0-67.31446-67.31348L256,212.686l-6.34277-6.34278a47.59816,47.59816,0,1,0-67.31446,67.31348l68,68a8.00063,8.00063,0,0,0,11.31446,0Zm-68-79.31348a31.59779,31.59779,0,0,1,44.68554-44.68652l12,12a8.00122,8.00122,0,0,0,11.31446,0l12-12a31.59779,31.59779,0,0,1,44.68554,44.68652L256,324.686Z"/><path d="M219.8877,233.46436l8.2246-13.72364a23.64209,23.64209,0,0,0-24.2246,0l8.2246,13.72364A7.6788,7.6788,0,0,1,219.8877,233.46436Z"/><path d="M208.40918,240h-16a23.43782,23.43782,0,0,0,6.9043,16.686l19.02929,19.02929,11.31446-11.31347L210.627,245.37207A7.54572,7.54572,0,0,1,208.40918,240Z"/><path d="M451.19238,327.87842a208.15448,208.15448,0,0,0,10.02881-105.78675l8.15088-8.15026A36.28411,36.28411,0,0,0,443.71582,152h-7.6377a209.19512,209.19512,0,0,0-27.52978-37.23438l27.16748-27.168a41.94131,41.94131,0,0,0-59.31445-59.31348L339.27,65.41638A208.03093,208.03093,0,0,0,215.31934,52.00549L202.22559,38.91162A77.71546,77.71546,0,0,0,146.91211,16a58.90442,58.90442,0,0,0-43.418,98.72,208.62364,208.62364,0,0,0-38.2915,58.49817A80.57527,80.57527,0,0,0,57.384,317.83679a208.08487,208.08487,0,0,0,46.06763,79.39759l-5.10889,5.10888a53.255,53.255,0,0,0,75.31446,75.31348l22.45752-22.45752a207.739,207.739,0,0,0,201.11963-46.65088l1.79492,1.79492a24.02783,24.02783,0,0,0,33.9414,0l33.373-33.373a24.02666,24.02666,0,0,0,0-33.94042Zm-53.97949,58.06335a7.99168,7.99168,0,0,0-11.27124,11.27112q-4.8219,4.44049-9.94165,8.54834V398a22.02489,22.02489,0,0,1,22-22h7.76123Q401.65381,381.116,397.21289,385.94177ZM417.322,360H398a38.04323,38.04323,0,0,0-38,38v19.322a190.92039,190.92039,0,0,1-64,26.47473V377.59192A128.59142,128.59142,0,0,0,377.5918,296h66.20508A190.92713,190.92713,0,0,1,417.322,360ZM144,256A112,112,0,1,1,256,368,112.12706,112.12706,0,0,1,144,256Zm8,161.322V398a38.04323,38.04323,0,0,0-38-38H94.678a190.92713,190.92713,0,0,1-26.47486-64H134.4082A128.59142,128.59142,0,0,0,216,377.59192v66.20483A190.92039,190.92039,0,0,1,152,417.322Zm-26.34277-30.97876a7.99611,7.99611,0,0,0-10.87012-.40149q-4.44032-4.82172-8.54834-9.94177H114a22.02489,22.02489,0,0,1,22,22v7.76123q-5.116-4.10742-9.94165-8.54834A7.99484,7.99484,0,0,0,125.65723,386.34326ZM114.78711,126.05835a7.99176,7.99176,0,0,0,11.27124-11.27124q4.82154-4.44032,9.94165-8.54834V114a22.02489,22.02489,0,0,1-22,22h-7.76123Q110.34619,130.884,114.78711,126.05835ZM114,152a38.04323,38.04323,0,0,0,38-38V94.678a190.92039,190.92039,0,0,1,64-26.47473v66.20483A128.59142,128.59142,0,0,0,134.4082,216H68.20312A190.92713,190.92713,0,0,1,94.678,152ZM65.49731,232h64.769q-.75439,3.95983-1.26831,8H112v16h16a128.15164,128.15164,0,0,0,2.26636,24h-64.769q-.49767-3.97485-.82519-8H80V256H64A193.01485,193.01485,0,0,1,65.49731,232ZM360,94.678V114a38.04323,38.04323,0,0,0,38,38h19.322a190.92713,190.92713,0,0,1,26.47486,64H377.5918A128.59142,128.59142,0,0,0,296,134.40808V68.20325A190.92039,190.92039,0,0,1,360,94.678Zm26.34277,30.97876a7.98526,7.98526,0,0,0,10.87012.40149q4.44031,4.82172,8.54834,9.94177H398a22.02489,22.02489,0,0,1-22-22v-7.76123q5.116,4.10742,9.94165,8.54834A7.99484,7.99484,0,0,0,386.34277,125.65674ZM448,256a193.01485,193.01485,0,0,1-1.49731,24h-64.769q.75439-3.95983,1.26831-8H400V256H384a128.15164,128.15164,0,0,0-2.26636-24h64.769q.49767,3.97485.82519,8H432v16Zm16-67.71582a20.15086,20.15086,0,0,1-5.94043,14.34326l-.79687.79688a206.38509,206.38509,0,0,0-12.80713-35.38684A20.29312,20.29312,0,0,1,464,188.28418ZM387.71582,39.59766a25.94094,25.94094,0,1,1,36.68555,36.68652l-27.167,27.16748A209.04565,209.04565,0,0,0,354.48071,72.8335ZM280,65.49731v64.769q-3.95983-.75439-8-1.26819V112H256v16a128.15164,128.15164,0,0,0-24,2.26636v-64.769q3.97485-.49785,8-.82519V80h16V64A193.01485,193.01485,0,0,1,280,65.49731ZM146.91211,32a61.81881,61.81881,0,0,1,43.999,18.2251l6.2605,6.2605a208.0039,208.0039,0,0,0-82.3457,46.90991A42.9042,42.9042,0,0,1,146.91211,32ZM32,247.4292a64.877,64.877,0,0,1,24.614-50.68811,208.37639,208.37639,0,0,0-5.19165,96.90417A64.24972,64.24972,0,0,1,32,247.4292ZM162.34277,466.34326a37.25465,37.25465,0,0,1-52.68554-52.68652l5.10839-5.1084a208.47278,208.47278,0,0,0,64.56592,40.80615ZM232,446.50269v-64.769q3.95983.75439,8,1.26819V400h16V384a128.15164,128.15164,0,0,0,24-2.26636v64.769q-3.97485.49785-8,.82519V432H256v16A193.01485,193.01485,0,0,1,232,446.50269Zm223.0293-80.84595-33.373,33.373a8.00771,8.00771,0,0,1-11.3125,0l-1.79541-1.79541a208.76789,208.76789,0,0,0,35.96875-53.40333l10.51221,10.51221A8.00889,8.00889,0,0,1,455.0293,365.65674Z"/><rect x="80" y="240" width="16" height="16"/><rect x="96" y="256" width="16" height="16"/><rect x="240" y="416" width="16" height="16"/><rect x="256" y="400" width="16" height="16"/><rect x="416" y="256" width="16" height="16"/><rect x="400" y="240" width="16" height="16"/><rect x="256" y="80" width="16" height="16"/><rect x="240" y="96" width="16" height="16"/></g></svg>
